<svg width="299" height="296" viewBox="0 0 299 296" fill="none" xmlns="http://www.w3.org/2000/svg">
<path d="M122.701 1.9363C91.3681 7.66963 64.7014 21.803 42.4347 44.4696C25.1014 62.0696 10.9681 86.8696 5.23473 109.27C0.168062 128.736 -1.43194 155.803 1.36806 169.003C2.16806 172.47 3.36806 178.203 4.16806 181.936C9.5014 206.87 23.9014 232.736 42.9681 251.536C96.9681 304.603 177.368 310.736 238.035 266.47C264.968 246.87 286.701 214.87 293.635 184.603C296.168 173.27 298.568 156.336 298.701 149.136C298.701 141.67 295.768 120.736 293.501 111.936C281.501 65.1363 245.901 25.403 201.635 9.26963C177.901 0.602965 145.901 -2.33037 122.701 1.9363ZM181.368 13.9363C199.235 18.8696 211.101 23.9363 223.235 31.6696C231.901 37.1363 248.301 51.1363 252.701 56.603C269.101 77.1363 277.635 92.8696 282.435 111.27C283.235 114.203 284.568 119.27 285.368 122.47C287.368 129.936 287.368 167.27 285.368 174.87C284.568 177.936 283.235 183.003 282.435 185.936C280.835 192.203 280.168 193.936 275.368 204.603C271.235 213.803 260.301 231.936 258.835 231.936C258.301 231.936 257.101 227.27 256.168 221.536C252.835 201.67 249.635 191.536 245.768 188.336C243.901 186.736 231.768 181.136 218.968 175.67C198.435 167.136 194.701 165.136 188.435 159.003L181.368 152.07V143.67C181.368 139.003 181.901 134.603 182.435 133.936C182.968 133.136 184.301 130.203 185.235 127.27C186.301 124.336 188.035 121.003 189.368 119.936C194.835 114.87 196.968 100.203 193.101 94.3363C191.101 91.403 191.235 91.1363 196.568 88.603C203.635 85.1363 203.768 81.803 196.835 77.2696C191.101 73.5363 191.368 75.6696 194.701 51.2696C196.835 36.203 196.301 35.2696 186.035 32.0696C161.368 24.4696 123.235 25.403 106.435 34.0696C104.435 35.1363 102.435 37.403 101.901 39.1363C101.235 41.803 103.901 61.803 106.168 71.403C106.701 73.6696 105.768 74.7363 101.768 76.8696C95.1014 80.3363 94.8347 85.003 101.101 88.203C107.101 91.1363 106.968 91.003 104.701 95.403C101.101 102.203 103.101 113.803 108.835 119.536C110.568 121.27 112.035 123.27 112.035 124.07C112.035 124.736 113.235 127.936 114.701 130.87C116.435 134.336 117.368 139.136 117.368 143.67C117.368 157.003 111.235 162.07 78.0347 175.936C54.9681 185.536 50.5681 188.203 48.1681 194.336C46.4347 198.736 41.3681 224.47 41.3681 228.736C41.3681 233.536 39.6347 232.603 34.3014 224.87C25.2347 211.803 17.5014 193.803 13.1014 175.936C10.5681 165.27 10.9681 126.87 13.7681 117.27C14.9681 113.27 16.3014 108.47 16.7014 106.603C17.7681 102.47 18.7014 100.203 24.0347 88.7363C41.9014 49.5363 83.2347 18.603 126.701 11.9363C137.501 10.203 172.701 11.5363 181.368 13.9363ZM178.701 60.4696C184.568 62.203 187.101 65.5363 184.435 67.9363C183.901 68.603 178.835 68.203 173.368 67.003C163.368 65.1363 127.635 65.2696 117.901 67.2696C114.701 67.9363 113.501 67.6696 112.835 65.803C111.768 62.8696 111.901 62.8696 119.501 60.7363C128.568 58.203 170.701 58.0696 178.701 60.4696ZM150.701 84.4696C161.368 84.4696 172.568 83.9363 175.768 83.5363L181.368 82.603V89.6696C181.368 95.6696 181.768 96.8696 184.435 97.9363C186.968 99.1363 187.368 100.203 187.101 105.27C186.835 110.07 186.035 111.936 182.968 114.603C180.701 116.603 178.701 119.936 178.168 122.603C174.435 141.67 156.835 156.47 143.235 151.803C132.835 148.336 123.768 136.603 120.035 121.67C119.101 118.203 117.635 115.803 116.168 115.27C113.368 114.47 110.701 108.203 110.701 102.603C110.701 100.07 111.635 98.603 114.035 97.5363C116.968 96.203 117.368 95.1363 117.368 89.2696V82.4696L124.435 83.5363C128.168 84.0696 140.035 84.603 150.701 84.4696ZM135.635 157.136C145.635 162.203 163.368 159.936 169.235 152.87C171.768 149.67 173.368 150.07 173.368 153.936C173.368 157.803 170.035 161.536 163.768 164.736C161.368 165.936 157.501 168.47 155.235 170.07L151.101 173.27L140.168 167.27C126.168 159.803 125.368 159.136 125.368 154.203C125.368 150.47 125.501 150.336 127.768 152.203C128.968 153.403 132.568 155.536 135.635 157.136ZM134.035 172.07C134.701 172.736 133.768 173.27 131.635 173.27C128.301 173.27 128.035 173.67 128.035 178.203C128.035 186.736 129.635 193.27 131.635 193.27C132.568 193.27 137.101 191.803 141.501 189.936C149.635 186.736 149.635 186.736 154.568 189.136C157.235 190.603 161.768 192.07 164.435 192.603L169.368 193.536V187.536C169.368 184.336 169.768 179.803 170.168 177.536C170.968 173.803 170.701 173.403 167.235 173.003L163.368 172.603L168.301 170.07C170.968 168.736 173.901 166.87 174.835 165.803C178.968 160.87 179.368 166.336 176.035 179.936C175.368 182.47 173.901 188.203 172.835 192.603C166.168 219.936 152.168 259.936 149.368 259.936C147.901 259.936 135.635 228.336 130.701 211.936C123.635 187.803 120.035 172.87 120.035 167.536V163.803L126.435 167.403C129.901 169.27 133.235 171.403 134.035 172.07ZM102.301 178.87C99.5014 191.003 99.3681 190.336 105.901 193.536C109.235 195.136 112.035 197.003 112.035 197.67C112.035 198.336 109.635 201.136 106.568 204.07L101.101 209.27L105.501 216.87C109.901 224.603 114.701 232.07 116.168 233.27C116.568 233.67 119.368 237.536 122.301 241.936C125.235 246.336 131.368 254.736 135.901 260.47C141.101 267.136 143.635 271.536 142.835 272.336C141.235 273.936 135.901 268.603 123.368 253.27C114.968 242.87 93.3681 211.27 93.3681 209.27C93.3681 208.87 95.5014 206.47 98.0347 203.936C100.568 201.403 102.701 199.003 102.701 198.47C102.701 197.936 100.568 196.736 97.9014 195.936C93.3681 194.336 93.1014 194.07 94.0347 189.403C94.5681 186.736 95.9014 182.603 96.9681 180.203C99.3681 175.27 103.368 174.203 102.301 178.87ZM201.768 180.203C202.835 182.603 204.168 186.736 204.701 189.536C205.635 194.203 205.368 194.47 200.835 196.07C198.168 197.003 196.035 198.203 196.035 198.736C196.035 199.27 198.168 201.536 200.835 203.936C206.568 209.003 206.701 208.736 194.568 227.003C184.568 242.07 172.168 257.936 162.301 268.603C151.501 280.203 152.435 274.603 163.768 259.403C172.168 248.336 175.768 243.27 185.368 229.403C190.568 221.936 197.368 210.603 197.368 209.27C197.368 208.736 194.968 206.07 192.035 203.403C189.101 200.736 186.701 198.07 186.701 197.403C186.701 196.736 189.501 195.136 192.835 193.67L198.835 191.27L198.035 185.403C197.501 182.203 196.835 178.736 196.435 177.803C194.968 173.803 199.901 176.203 201.768 180.203Z" fill="#00C16A"/>
<path d="M151.635 96.7363C151.101 97.2697 150.701 100.736 150.701 104.47C150.701 113.803 149.501 117.27 146.568 117.27C143.235 117.27 143.368 120.736 146.568 122.603C150.035 124.47 153.768 124.336 156.568 122.203C158.701 120.603 158.835 119.67 157.101 108.603C155.368 97.6697 153.901 94.4697 151.635 96.7363Z" fill="#00C16A"/>
</svg>
